<!DOCTYPE svg PUBLIC "-//W3C//DTD SVG 1.1//EN" "http://www.w3.org/Graphics/SVG/1.1/DTD/svg11.dtd">
<!-- Uploaded to: SVG Repo, www.svgrepo.com, Transformed by: SVG Repo Mixer Tools -->
<svg height="800px" width="800px" version="1.1" id="Layer_1" xmlns="http://www.w3.org/2000/svg" xmlns:xlink="http://www.w3.org/1999/xlink" viewBox="0 0 512 512" xml:space="preserve" fill="#000000">
<g id="SVGRepo_bgCarrier" stroke-width="0"/>
<g id="SVGRepo_tracerCarrier" stroke-linecap="round" stroke-linejoin="round"/>
<g id="SVGRepo_iconCarrier"> <polygon style="fill:#DDA15E;" points="455.736,109.714 399.473,75.956 421.978,447.297 455.736,447.297 "/> <polygon style="fill:#FEFAE0;" points="0.001,109.714 0.001,447.297 421.978,447.297 421.978,75.956 "/> <polygon style="fill:#BC6C25;" points="455.736,8.44 421.978,8.44 388.22,75.956 421.978,109.714 455.736,109.714 "/> <path style="fill:#DDA15E;" d="M0,8.44v101.275h421.978V8.44H0z M84.396,75.956c-9.322,0-16.879-7.557-16.879-16.879 s7.557-16.879,16.879-16.879s16.879,7.557,16.879,16.879S93.717,75.956,84.396,75.956z M371.341,75.956 c-9.322,0-16.879-7.557-16.879-16.879s7.557-16.879,16.879-16.879s16.879,7.557,16.879,16.879S380.662,75.956,371.341,75.956z"/> <path style="fill:#283618;" d="M371.341,185.67H84.396c-4.661,0-8.44,3.779-8.44,8.44v168.791c0,4.661,3.779,8.44,8.44,8.44H379.78 V194.11C379.78,189.449,376.003,185.67,371.341,185.67z M267.253,202.549v67.516h-78.769v-67.516H267.253z M171.604,202.549v67.516 H92.835v-67.516H171.604z M92.835,354.462v-67.516h78.769v67.516H92.835z M188.484,354.462v-67.516h78.769v67.516H188.484z M362.901,354.462h-78.769v-67.516h78.769V354.462z M284.132,270.066v-67.516h78.769v67.516H284.132z"/> <path style="fill:#BC6C25;" d="M399.473,278.505V503.56C461.621,503.56,512,453.182,512,391.033S461.621,278.505,399.473,278.505z"/> <path style="fill:#DDA15E;" d="M399.473,278.505c43.503,0,78.769,50.379,78.769,112.527S442.976,503.56,399.473,503.56 c-62.149,0-112.527-50.379-112.527-112.527S337.324,278.505,399.473,278.505z"/> <path style="fill:#FFFFFF;" d="M451.192,418.882l-27.849-27.849l27.849-27.849c6.592-6.592,6.592-17.279,0-23.87 c-6.592-6.592-17.279-6.592-23.87,0l-27.849,27.849l-27.849-27.849c-6.592-6.592-17.279-6.592-23.87,0s-6.592,17.279,0,23.87 l27.849,27.849l-27.849,27.849c-6.592,6.592-6.592,17.279,0,23.87s17.279,6.592,23.87,0l27.849-27.849l27.849,27.849 c6.592,6.592,17.279,6.592,23.87,0C457.784,436.161,457.784,425.474,451.192,418.882z"/> </g>
</svg>